<svg width="200" height="200" viewBox="0 0 200 200" fill="none" xmlns="http://www.w3.org/2000/svg">
<path d="M151.719 184.844H33.75C30.6641 184.844 28.1641 182.344 28.1641 179.258L25.8203 125.586L28.1641 105.586V20.7812C28.1641 17.6953 30.6641 15.1953 33.75 15.1953H151.758C154.844 15.1953 157.344 17.6953 157.344 20.7812V179.258C157.305 182.305 154.805 184.844 151.719 184.844Z" fill="url(#paint0_linear_2415_572)"/>
<path d="M28.125 137.461V179.258C28.125 182.344 30.625 184.844 33.7109 184.844H151.719C154.805 184.844 157.305 182.344 157.305 179.258V137.461H28.125Z" fill="url(#paint1_linear_2415_572)"/>
<path d="M151.719 15.1562H84.2188V184.805H151.719C154.805 184.805 157.305 182.305 157.305 179.219V20.7812C157.305 17.6953 154.805 15.1562 151.719 15.1562Z" fill="url(#paint2_linear_2415_572)"/>
<path d="M148.672 29.2578L37.1875 174.805L47.2266 184.844H151.719C154.805 184.844 157.305 182.344 157.305 179.258V37.9297L148.672 29.2578Z" fill="url(#paint3_linear_2415_572)"/>
<path d="M151.719 15.1562H106.406V39.2969H157.344V20.7813C157.305 17.6953 154.805 15.1562 151.719 15.1562Z" fill="url(#paint4_linear_2415_572)"/>
<path d="M143.398 26.7969C147.188 26.7969 150.234 29.8828 150.234 33.6328V139.766C150.234 142.07 149.336 144.297 147.695 145.938L119.57 174.062C118.086 175.547 116.172 176.445 114.102 176.602H41.7188C38.125 176.602 35.1953 173.672 35.1953 170.078V33.6719C35.1953 29.8828 38.2812 26.8359 42.0312 26.8359C42.0703 26.7969 143.398 26.7969 143.398 26.7969Z" fill="url(#paint5_linear_2415_572)"/>
<path d="M143.398 26.7969C147.188 26.7969 150.234 29.8828 150.234 33.6328V139.766C150.234 142.07 149.336 144.297 147.695 145.938L119.57 174.062C118.086 175.547 116.172 176.445 114.102 176.602H84.0234V26.7969H143.398Z" fill="url(#paint6_linear_2415_572)"/>
<path d="M150.273 33.6719C150.273 29.8828 147.188 26.8359 143.438 26.8359H71.9531L66.6797 32.0313L150.273 115.625V33.6719Z" fill="url(#paint7_linear_2415_572)"/>
<path d="M35.1953 116.289V170.117C35.1953 173.711 38.125 176.641 41.7188 176.641H114.141C116.211 176.484 118.125 175.586 119.609 174.102L147.695 146.016C149.336 144.375 150.273 142.148 150.273 139.844V116.328H35.1953V116.289Z" fill="url(#paint8_linear_2415_572)"/>
<path d="M97.5391 176.602L65.4297 144.531L55.1953 154.766V176.602H97.5391Z" fill="url(#paint9_linear_2415_572)"/>
<path d="M117.578 133.555L138.828 154.805L147.656 145.977C149.297 144.336 150.195 142.109 150.195 139.805V100.898L117.578 133.555Z" fill="url(#paint10_linear_2415_572)"/>
<path d="M146.211 143.828H123.984C120.391 143.828 117.461 146.758 117.461 150.352V172.578C117.461 174.805 115.664 176.641 113.398 176.641C133.75 176.641 150.234 160.156 150.234 139.805C150.273 142.031 148.438 143.828 146.211 143.828Z" fill="url(#paint11_linear_2415_572)"/>
<path d="M73.7109 63.75L98.7109 88.75C111.016 86.3281 120.703 76.6406 123.086 64.375L98.0859 39.375L86.6406 52.3047L73.7109 63.75Z" fill="url(#paint12_linear_2415_572)"/>
<path d="M150.273 91.5234L111.875 53.1641L98.8281 64.4531L87.5 77.5391L150.273 140.313V91.5234Z" fill="url(#paint13_linear_2415_572)"/>
<path d="M109.922 52.3047H98.8281V41.1719C98.8281 39.6875 97.6172 38.4766 96.1328 38.4766H89.3359C87.8516 38.4766 86.6406 39.6875 86.6406 41.1719V52.3047H75.5078C74.0234 52.3047 72.8125 53.5156 72.8125 55V61.7969C72.8125 63.2812 74.0234 64.4922 75.5078 64.4922H86.6406V75.625C86.6406 77.1094 87.8516 78.3203 89.3359 78.3203H96.1328C97.6172 78.3203 98.8281 77.1094 98.8281 75.625V64.4531H109.961C111.445 64.4531 112.656 63.2422 112.656 61.7578V54.9609C112.617 53.4766 111.406 52.3047 109.922 52.3047Z" fill="url(#paint14_linear_2415_572)"/>
<path d="M92.7344 23.2812C99.1633 23.2812 104.375 18.0696 104.375 11.6406C104.375 5.21168 99.1633 0 92.7344 0C86.3054 0 81.0938 5.21168 81.0938 11.6406C81.0938 18.0696 86.3054 23.2812 92.7344 23.2812Z" fill="url(#paint15_linear_2415_572)"/>
<path d="M92.7344 23.2812C99.1633 23.2812 104.375 18.0696 104.375 11.6406C104.375 5.21168 99.1633 0 92.7344 0C86.3054 0 81.0938 5.21168 81.0938 11.6406C81.0938 18.0696 86.3054 23.2812 92.7344 23.2812Z" fill="url(#paint16_linear_2415_572)"/>
<path d="M92.7344 23.2812C99.1633 23.2812 104.375 18.0696 104.375 11.6406C104.375 5.21168 99.1633 0 92.7344 0C86.3054 0 81.0938 5.21168 81.0938 11.6406C81.0938 18.0696 86.3054 23.2812 92.7344 23.2812Z" fill="url(#paint17_linear_2415_572)"/>
<path d="M73.1641 11.9141H112.305C116.406 11.9141 119.727 15.2344 119.727 19.3359V29.8047C119.727 31.4844 118.359 32.8516 116.68 32.8516H68.7891C67.1094 32.8516 65.7422 31.4844 65.7422 29.8047V19.3359C65.7422 15.2344 69.0625 11.9141 73.1641 11.9141Z" fill="url(#paint18_linear_2415_572)"/>
<path d="M73.1641 11.9141H112.305C116.406 11.9141 119.727 15.2344 119.727 19.3359V29.8047C119.727 31.4844 118.359 32.8516 116.68 32.8516H68.7891C67.1094 32.8516 65.7422 31.4844 65.7422 29.8047V19.3359C65.7422 15.2344 69.0625 11.9141 73.1641 11.9141Z" fill="url(#paint19_linear_2415_572)"/>
<path d="M112.305 11.9141H93.0469V32.8906H116.68C118.359 32.8906 119.727 31.5234 119.727 29.8438V19.3359C119.727 15.2344 116.406 11.9141 112.305 11.9141Z" fill="url(#paint20_linear_2415_572)"/>
<path d="M50.8984 86.4844H72.3437C75.1562 86.4844 77.4219 88.75 77.4219 91.5625V113.008C77.4219 115.82 75.1562 118.086 72.3437 118.086H50.8984C48.0859 118.086 45.8203 115.82 45.8203 113.008V91.5625C45.8203 88.75 48.0859 86.4844 50.8984 86.4844Z" fill="url(#paint21_linear_2415_572)"/>
<path d="M50.8984 86.4844H72.3437C75.1562 86.4844 77.4219 88.75 77.4219 91.5625V113.008C77.4219 115.82 75.1562 118.086 72.3437 118.086H50.8984C48.0859 118.086 45.8203 115.82 45.8203 113.008V91.5625C45.8203 88.75 48.0859 86.4844 50.8984 86.4844Z" fill="url(#paint22_linear_2415_572)"/>
<path d="M50.8984 86.4844H72.3437C75.1562 86.4844 77.4219 88.75 77.4219 91.5625V113.008C77.4219 115.82 75.1562 118.086 72.3437 118.086H50.8984C48.0859 118.086 45.8203 115.82 45.8203 113.008V91.5625C45.8203 88.75 48.0859 86.4844 50.8984 86.4844Z" fill="url(#paint23_linear_2415_572)"/>
<path d="M88.4766 102.695H136.172C138.086 102.695 139.648 101.133 139.648 99.2187C139.648 97.3047 138.086 95.7422 136.172 95.7422H88.4766C86.5625 95.7422 85 97.3047 85 99.2187C85 101.133 86.5234 102.695 88.4766 102.695Z" fill="url(#paint24_linear_2415_572)"/>
<path d="M88.4765 111.094H136.172C138.086 111.094 139.648 112.656 139.648 114.57C139.648 116.484 138.086 118.047 136.172 118.047H88.4765C86.5625 118.047 85 116.484 85 114.57C84.9609 112.656 86.5234 111.094 88.4765 111.094Z" fill="url(#paint25_linear_2415_572)"/>
<path d="M49.2969 127.969H96.9922C98.9062 127.969 100.469 129.531 100.469 131.445C100.469 133.359 98.9062 134.922 96.9922 134.922H49.2969C47.3828 134.922 45.8203 133.359 45.8203 131.445C45.8203 129.531 47.3828 127.969 49.2969 127.969Z" fill="url(#paint26_linear_2415_572)"/>
<path d="M110.234 127.969H136.172C138.086 127.969 139.648 129.531 139.648 131.445C139.648 133.359 138.086 134.922 136.172 134.922H110.234C108.32 134.922 106.758 133.359 106.758 131.445C106.719 129.531 108.281 127.969 110.234 127.969Z" fill="url(#paint27_linear_2415_572)"/>
<path d="M105 142.969H76.1719C74.2578 142.969 72.6953 144.531 72.6953 146.445C72.6953 148.359 74.2578 149.922 76.1719 149.922H105C106.914 149.922 108.477 148.359 108.477 146.445C108.477 144.531 106.914 142.969 105 142.969Z" fill="url(#paint28_linear_2415_572)"/>
<path d="M61.3672 142.969H49.2969C47.3828 142.969 45.8203 144.531 45.8203 146.445C45.8203 148.359 47.3828 149.922 49.2969 149.922H61.3672C63.2813 149.922 64.8437 148.359 64.8437 146.445C64.8437 144.531 63.2813 142.969 61.3672 142.969Z" fill="url(#paint29_linear_2415_572)"/>
<path d="M67.1875 153.242L65.9766 156.211C63.125 163.32 62.3047 171.055 63.5938 178.594L64.336 182.891C65.1563 187.656 64.8438 192.461 63.5156 196.992C63.0078 198.75 61.3672 200 59.5313 200H25.1563C22.8906 200 20.8985 198.438 20.3906 196.25L14.5703 172.383C11.9141 161.523 11.0938 150.273 12.1485 139.141L12.3438 137.188C13.1641 128.438 15.9766 120.039 20.5469 112.539L22.5 109.336C23.7891 107.188 25.9375 105.898 28.1641 105.586V140.547V142.539C28.3203 150.039 30.3125 157.383 33.9453 163.945L37.8516 170.977C38.3203 171.836 39.1797 172.266 40 172.266C41.0156 172.266 41.9922 171.68 42.3828 170.547C44.6875 163.203 47.6172 156.055 51.0547 149.18L52.3828 146.563C53.8281 143.75 56.6797 142.07 59.6485 142.07C60.625 142.07 61.6406 142.266 62.6172 142.617C66.7969 144.258 68.8672 149.062 67.1875 153.242Z" fill="url(#paint30_linear_2415_572)"/>
<path d="M37.8124 170.977L33.9062 163.945C30.2343 157.344 28.2812 150 28.1249 142.5C28.1249 141.836 28.1249 141.172 28.1249 140.508V105.547C25.8984 105.859 23.789 107.148 22.4609 109.297L20.5077 112.5C15.9374 120 13.164 128.437 12.3046 137.148L12.1093 139.102C11.0546 150.195 11.8749 161.367 14.4921 172.148H39.5702C38.8671 172.109 38.2031 171.68 37.8124 170.977Z" fill="url(#paint31_linear_2415_572)"/>
<path d="M43.75 166.211C43.2422 167.656 42.7734 169.063 42.3047 170.508C41.9531 171.641 40.9375 172.227 39.9219 172.227C39.1016 172.227 38.2422 171.797 37.7734 170.938L35.1563 166.211H13.2422C13.5938 168.281 14.0625 170.352 14.5312 172.383L20.3516 196.25C20.8984 198.438 22.8516 200 25.1172 200H59.4922C61.3281 200 62.9688 198.789 63.4766 196.992C64.8047 192.461 65.1172 187.656 64.2969 182.891L63.5547 178.594C62.8516 174.453 62.7734 170.273 63.3203 166.172L43.75 166.211Z" fill="url(#paint32_linear_2415_572)"/>
<path d="M67.1875 153.242L65.9766 156.211C63.125 163.32 62.3047 171.055 63.5938 178.594L64.3359 182.891C64.6484 184.648 64.8047 186.406 64.8047 188.203C64.8047 191.172 64.375 194.141 63.5547 196.992C63.0469 198.789 61.4062 200 59.5312 200H26.5625L34.1797 164.453L37.8125 170.977C38.2813 171.836 39.1406 172.266 39.9609 172.266C40.9766 172.266 41.9531 171.68 42.3438 170.547C44.6484 163.203 47.5781 156.055 51.0156 149.18L52.3438 146.562C53.7891 143.75 56.6406 142.07 59.6094 142.07C60.5859 142.07 61.6016 142.266 62.5781 142.617C66.7969 144.258 68.8672 149.062 67.1875 153.242Z" fill="url(#paint33_linear_2415_572)"/>
<path d="M39.6094 172.226C40.7422 172.383 41.9531 171.797 42.3438 170.508C44.6484 163.164 47.5391 156.016 51.0156 149.141L52.3437 146.523C54.2578 142.773 58.6719 141.094 62.5781 142.617C66.7969 144.258 68.8672 149.062 67.1875 153.242L65.9766 156.211C63.2812 162.891 62.3828 170.156 63.3984 177.266C63.3984 177.305 39.6094 172.226 39.6094 172.226Z" fill="url(#paint34_linear_2415_572)"/>
<path d="M119.648 127.617C121.875 125.391 124.531 124.492 125.586 125.547C126.64 126.602 125.742 129.258 123.515 131.485C121.289 133.711 118.633 134.61 117.578 133.555C116.523 132.5 117.461 129.844 119.648 127.617Z" fill="url(#paint35_linear_2415_572)"/>
<path d="M187.187 69.5704C170 93.3985 148.984 114.414 125.156 131.602C124.336 132.188 123.164 132.109 122.422 131.367L119.765 128.711C119.023 127.969 118.945 126.836 119.531 125.977C136.719 102.148 157.734 81.1329 181.562 63.9454C182.383 63.3594 183.554 63.4376 184.297 64.1797L186.953 66.836C187.695 67.5782 187.773 68.7501 187.187 69.5704Z" fill="url(#paint36_linear_2415_572)"/>
<path d="M119.804 128.711L122.461 131.367C123.203 132.109 124.336 132.188 125.195 131.602C149.023 114.414 170.039 93.3984 187.226 69.5703C187.812 68.75 187.734 67.5781 186.992 66.8359L184.336 64.1797C184.179 64.0234 183.984 63.8672 183.789 63.7891L119.375 128.164C119.492 128.359 119.609 128.555 119.804 128.711Z" fill="url(#paint37_linear_2415_572)"/>
<path d="M186.953 66.8359L185.625 65.5078L167.265 83.8672L172.07 88.6719C177.383 82.5391 182.461 76.1328 187.187 69.5703C187.773 68.75 187.695 67.5781 186.953 66.8359Z" fill="url(#paint38_linear_2415_572)"/>
<path d="M160.351 101.367C159.258 102.5 158.125 103.633 156.992 104.727L146.406 94.1406C147.5 93.0078 148.633 91.875 149.765 90.7812L160.351 101.367Z" fill="url(#paint39_linear_2415_572)"/>
<path d="M160.351 101.367C159.258 102.5 158.125 103.633 156.992 104.727L146.406 94.1406C147.5 93.0078 148.633 91.875 149.765 90.7812L160.351 101.367Z" fill="url(#paint40_linear_2415_572)"/>
<path d="M187.578 63.5547C188.554 64.5312 188.554 66.0938 187.578 67.0313L170.742 83.8672C169.765 84.8438 168.203 84.8438 167.265 83.8672C166.289 82.8906 166.289 81.3281 167.265 80.3906L184.101 63.5547C185.039 62.5781 186.601 62.5781 187.578 63.5547Z" fill="url(#paint41_linear_2415_572)"/>
<defs>
<linearGradient id="paint0_linear_2415_572" x1="14.9121" y1="46.7672" x2="174.891" y2="156.204" gradientUnits="userSpaceOnUse">
<stop stop-color="#FE9738"/>
<stop offset="0.179" stop-color="#F99337"/>
<stop offset="0.3646" stop-color="#ED8A36"/>
<stop offset="0.5532" stop-color="#D87B34"/>
<stop offset="0.7438" stop-color="#BB6532"/>
<stop offset="0.9342" stop-color="#96492F"/>
<stop offset="1" stop-color="#883F2E"/>
</linearGradient>
<linearGradient id="paint1_linear_2415_572" x1="92.7293" y1="173.372" x2="92.7293" y2="186.9" gradientUnits="userSpaceOnUse">
<stop stop-color="#6D3326" stop-opacity="0"/>
<stop offset="0.1865" stop-color="#6D3326" stop-opacity="0.038"/>
<stop offset="0.3798" stop-color="#6D3326" stop-opacity="0.152"/>
<stop offset="0.5761" stop-color="#6D3326" stop-opacity="0.343"/>
<stop offset="0.7747" stop-color="#6D3326" stop-opacity="0.609"/>
<stop offset="0.9732" stop-color="#6D3326" stop-opacity="0.949"/>
<stop offset="1" stop-color="#6D3326"/>
</linearGradient>
<linearGradient id="paint2_linear_2415_572" x1="146.786" y1="100" x2="159.318" y2="100" gradientUnits="userSpaceOnUse">
<stop stop-color="#6D3326" stop-opacity="0"/>
<stop offset="0.1865" stop-color="#6D3326" stop-opacity="0.038"/>
<stop offset="0.3798" stop-color="#6D3326" stop-opacity="0.152"/>
<stop offset="0.5761" stop-color="#6D3326" stop-opacity="0.343"/>
<stop offset="0.7747" stop-color="#6D3326" stop-opacity="0.609"/>
<stop offset="0.9732" stop-color="#6D3326" stop-opacity="0.949"/>
<stop offset="1" stop-color="#6D3326"/>
</linearGradient>
<linearGradient id="paint3_linear_2415_572" x1="119.106" y1="124.425" x2="85.7812" y2="97.059" gradientUnits="userSpaceOnUse">
<stop stop-color="#6D3326" stop-opacity="0"/>
<stop offset="0.1865" stop-color="#6D3326" stop-opacity="0.038"/>
<stop offset="0.3798" stop-color="#6D3326" stop-opacity="0.152"/>
<stop offset="0.5761" stop-color="#6D3326" stop-opacity="0.343"/>
<stop offset="0.7747" stop-color="#6D3326" stop-opacity="0.609"/>
<stop offset="0.9732" stop-color="#6D3326" stop-opacity="0.949"/>
<stop offset="1" stop-color="#6D3326"/>
</linearGradient>
<linearGradient id="paint4_linear_2415_572" x1="133.42" y1="27.2488" x2="112.519" y2="27.2488" gradientUnits="userSpaceOnUse">
<stop stop-color="#6D3326" stop-opacity="0"/>
<stop offset="0.1865" stop-color="#6D3326" stop-opacity="0.038"/>
<stop offset="0.3798" stop-color="#6D3326" stop-opacity="0.152"/>
<stop offset="0.5761" stop-color="#6D3326" stop-opacity="0.343"/>
<stop offset="0.7747" stop-color="#6D3326" stop-opacity="0.609"/>
<stop offset="0.9732" stop-color="#6D3326" stop-opacity="0.949"/>
<stop offset="1" stop-color="#6D3326"/>
</linearGradient>
<linearGradient id="paint5_linear_2415_572" x1="36.1527" y1="62.7414" x2="163.419" y2="150.589" gradientUnits="userSpaceOnUse">
<stop stop-color="#F5FBFF"/>
<stop offset="0.2414" stop-color="#F0F8FE"/>
<stop offset="0.4916" stop-color="#E4F2FE"/>
<stop offset="0.7457" stop-color="#CFE8FE"/>
<stop offset="1" stop-color="#B3DAFE"/>
</linearGradient>
<linearGradient id="paint6_linear_2415_572" x1="131.195" y1="101.711" x2="153.785" y2="101.711" gradientUnits="userSpaceOnUse">
<stop stop-color="#8AC9FE" stop-opacity="0"/>
<stop offset="0.1291" stop-color="#89C8FD" stop-opacity="0.019"/>
<stop offset="0.2629" stop-color="#88C6FB" stop-opacity="0.075"/>
<stop offset="0.3989" stop-color="#87C4F8" stop-opacity="0.168"/>
<stop offset="0.5365" stop-color="#85C0F4" stop-opacity="0.298"/>
<stop offset="0.6753" stop-color="#83BBEF" stop-opacity="0.466"/>
<stop offset="0.8151" stop-color="#7FB5E9" stop-opacity="0.672"/>
<stop offset="0.9532" stop-color="#7CAEE1" stop-opacity="0.911"/>
<stop offset="1" stop-color="#7BACDF"/>
</linearGradient>
<linearGradient id="paint7_linear_2415_572" x1="111.16" y1="48.6863" x2="106.967" y2="23.5277" gradientUnits="userSpaceOnUse">
<stop stop-color="#8AC9FE" stop-opacity="0"/>
<stop offset="0.1291" stop-color="#89C8FD" stop-opacity="0.019"/>
<stop offset="0.2629" stop-color="#88C6FB" stop-opacity="0.075"/>
<stop offset="0.3989" stop-color="#87C4F8" stop-opacity="0.168"/>
<stop offset="0.5365" stop-color="#85C0F4" stop-opacity="0.298"/>
<stop offset="0.6753" stop-color="#83BBEF" stop-opacity="0.466"/>
<stop offset="0.8151" stop-color="#7FB5E9" stop-opacity="0.672"/>
<stop offset="0.9532" stop-color="#7CAEE1" stop-opacity="0.911"/>
<stop offset="1" stop-color="#7BACDF"/>
</linearGradient>
<linearGradient id="paint8_linear_2415_572" x1="92.7293" y1="158.906" x2="92.7293" y2="177.454" gradientUnits="userSpaceOnUse">
<stop stop-color="#8AC9FE" stop-opacity="0"/>
<stop offset="0.1291" stop-color="#89C8FD" stop-opacity="0.019"/>
<stop offset="0.2629" stop-color="#88C6FB" stop-opacity="0.075"/>
<stop offset="0.3989" stop-color="#87C4F8" stop-opacity="0.168"/>
<stop offset="0.5365" stop-color="#85C0F4" stop-opacity="0.298"/>
<stop offset="0.6753" stop-color="#83BBEF" stop-opacity="0.466"/>
<stop offset="0.8151" stop-color="#7FB5E9" stop-opacity="0.672"/>
<stop offset="0.9532" stop-color="#7CAEE1" stop-opacity="0.911"/>
<stop offset="1" stop-color="#7BACDF"/>
</linearGradient>
<linearGradient id="paint9_linear_2415_572" x1="80.7629" y1="164.996" x2="61.9203" y2="160.912" gradientUnits="userSpaceOnUse">
<stop stop-color="#8AC9FE" stop-opacity="0"/>
<stop offset="0.1291" stop-color="#89C8FD" stop-opacity="0.019"/>
<stop offset="0.2629" stop-color="#88C6FB" stop-opacity="0.075"/>
<stop offset="0.3989" stop-color="#87C4F8" stop-opacity="0.168"/>
<stop offset="0.5365" stop-color="#85C0F4" stop-opacity="0.298"/>
<stop offset="0.6753" stop-color="#83BBEF" stop-opacity="0.466"/>
<stop offset="0.8151" stop-color="#7FB5E9" stop-opacity="0.672"/>
<stop offset="0.9532" stop-color="#7CAEE1" stop-opacity="0.911"/>
<stop offset="1" stop-color="#7BACDF"/>
</linearGradient>
<linearGradient id="paint10_linear_2415_572" x1="143.234" y1="130.943" x2="136.18" y2="120.546" gradientUnits="userSpaceOnUse">
<stop stop-color="#8AC9FE" stop-opacity="0"/>
<stop offset="0.1291" stop-color="#89C8FD" stop-opacity="0.019"/>
<stop offset="0.2629" stop-color="#88C6FB" stop-opacity="0.075"/>
<stop offset="0.3989" stop-color="#87C4F8" stop-opacity="0.168"/>
<stop offset="0.5365" stop-color="#85C0F4" stop-opacity="0.298"/>
<stop offset="0.6753" stop-color="#83BBEF" stop-opacity="0.466"/>
<stop offset="0.8151" stop-color="#7FB5E9" stop-opacity="0.672"/>
<stop offset="0.9532" stop-color="#7CAEE1" stop-opacity="0.911"/>
<stop offset="1" stop-color="#7BACDF"/>
</linearGradient>
<linearGradient id="paint11_linear_2415_572" x1="109.614" y1="135.968" x2="137.961" y2="164.315" gradientUnits="userSpaceOnUse">
<stop stop-color="#F5FBFF"/>
<stop offset="0.2414" stop-color="#F0F8FE"/>
<stop offset="0.4916" stop-color="#E4F2FE"/>
<stop offset="0.7457" stop-color="#CFE8FE"/>
<stop offset="1" stop-color="#B3DAFE"/>
</linearGradient>
<linearGradient id="paint12_linear_2415_572" x1="99.0469" y1="64.6973" x2="82.9949" y2="48.6457" gradientUnits="userSpaceOnUse">
<stop stop-color="#8AC9FE" stop-opacity="0"/>
<stop offset="0.1291" stop-color="#89C8FD" stop-opacity="0.019"/>
<stop offset="0.2629" stop-color="#88C6FB" stop-opacity="0.075"/>
<stop offset="0.3989" stop-color="#87C4F8" stop-opacity="0.168"/>
<stop offset="0.5365" stop-color="#85C0F4" stop-opacity="0.298"/>
<stop offset="0.6753" stop-color="#83BBEF" stop-opacity="0.466"/>
<stop offset="0.8151" stop-color="#7FB5E9" stop-opacity="0.672"/>
<stop offset="0.9532" stop-color="#7CAEE1" stop-opacity="0.911"/>
<stop offset="1" stop-color="#7BACDF"/>
</linearGradient>
<linearGradient id="paint13_linear_2415_572" x1="112.929" y1="78.5789" x2="96.8563" y2="62.5059" gradientUnits="userSpaceOnUse">
<stop stop-color="#8AC9FE" stop-opacity="0"/>
<stop offset="0.1291" stop-color="#89C8FD" stop-opacity="0.019"/>
<stop offset="0.2629" stop-color="#88C6FB" stop-opacity="0.075"/>
<stop offset="0.3989" stop-color="#87C4F8" stop-opacity="0.168"/>
<stop offset="0.5365" stop-color="#85C0F4" stop-opacity="0.298"/>
<stop offset="0.6753" stop-color="#83BBEF" stop-opacity="0.466"/>
<stop offset="0.8151" stop-color="#7FB5E9" stop-opacity="0.672"/>
<stop offset="0.9532" stop-color="#7CAEE1" stop-opacity="0.911"/>
<stop offset="1" stop-color="#7BACDF"/>
</linearGradient>
<linearGradient id="paint14_linear_2415_572" x1="77.6703" y1="43.3211" x2="104.932" y2="70.5832" gradientUnits="userSpaceOnUse">
<stop stop-color="#FE646F"/>
<stop offset="0.236" stop-color="#FC5F6B"/>
<stop offset="0.4805" stop-color="#F7535F"/>
<stop offset="0.7289" stop-color="#EF3E4B"/>
<stop offset="0.9785" stop-color="#E5212F"/>
<stop offset="1" stop-color="#E41F2D"/>
</linearGradient>
<linearGradient id="paint15_linear_2415_572" x1="86.8969" y1="3.19961" x2="98.0355" y2="19.3508" gradientUnits="userSpaceOnUse">
<stop stop-color="#C5D3DD"/>
<stop offset="0.2627" stop-color="#C0CED9"/>
<stop offset="0.5349" stop-color="#B4C2CD"/>
<stop offset="0.8104" stop-color="#9FAEB9"/>
<stop offset="1" stop-color="#8D9CA8"/>
</linearGradient>
<linearGradient id="paint16_linear_2415_572" x1="92.7293" y1="7.5457" x2="92.7293" y2="14.5297" gradientUnits="userSpaceOnUse">
<stop stop-color="#596C76" stop-opacity="0"/>
<stop offset="0.179" stop-color="#596C76" stop-opacity="0.035"/>
<stop offset="0.3646" stop-color="#596C76" stop-opacity="0.141"/>
<stop offset="0.5532" stop-color="#596C76" stop-opacity="0.316"/>
<stop offset="0.7438" stop-color="#596C76" stop-opacity="0.563"/>
<stop offset="0.9342" stop-color="#596C76" stop-opacity="0.876"/>
<stop offset="1" stop-color="#596C76"/>
</linearGradient>
<linearGradient id="paint17_linear_2415_572" x1="92.502" y1="11.7105" x2="108.931" y2="7.81211" gradientUnits="userSpaceOnUse">
<stop stop-color="#596C76" stop-opacity="0"/>
<stop offset="0.179" stop-color="#596C76" stop-opacity="0.035"/>
<stop offset="0.3646" stop-color="#596C76" stop-opacity="0.141"/>
<stop offset="0.5532" stop-color="#596C76" stop-opacity="0.316"/>
<stop offset="0.7438" stop-color="#596C76" stop-opacity="0.563"/>
<stop offset="0.9342" stop-color="#596C76" stop-opacity="0.876"/>
<stop offset="1" stop-color="#596C76"/>
</linearGradient>
<linearGradient id="paint18_linear_2415_572" x1="90.8844" y1="8.3875" x2="93.7559" y2="33.4109" gradientUnits="userSpaceOnUse">
<stop stop-color="#C5D3DD"/>
<stop offset="0.2627" stop-color="#C0CED9"/>
<stop offset="0.5349" stop-color="#B4C2CD"/>
<stop offset="0.8104" stop-color="#9FAEB9"/>
<stop offset="1" stop-color="#8D9CA8"/>
</linearGradient>
<linearGradient id="paint19_linear_2415_572" x1="92.7293" y1="26.2027" x2="92.7293" y2="33.2145" gradientUnits="userSpaceOnUse">
<stop stop-color="#596C76" stop-opacity="0"/>
<stop offset="0.179" stop-color="#596C76" stop-opacity="0.035"/>
<stop offset="0.3646" stop-color="#596C76" stop-opacity="0.141"/>
<stop offset="0.5532" stop-color="#596C76" stop-opacity="0.316"/>
<stop offset="0.7438" stop-color="#596C76" stop-opacity="0.563"/>
<stop offset="0.9342" stop-color="#596C76" stop-opacity="0.876"/>
<stop offset="1" stop-color="#596C76"/>
</linearGradient>
<linearGradient id="paint20_linear_2415_572" x1="112.535" y1="22.3988" x2="120.654" y2="22.3988" gradientUnits="userSpaceOnUse">
<stop stop-color="#596C76" stop-opacity="0"/>
<stop offset="0.179" stop-color="#596C76" stop-opacity="0.035"/>
<stop offset="0.3646" stop-color="#596C76" stop-opacity="0.141"/>
<stop offset="0.5532" stop-color="#596C76" stop-opacity="0.316"/>
<stop offset="0.7438" stop-color="#596C76" stop-opacity="0.563"/>
<stop offset="0.9342" stop-color="#596C76" stop-opacity="0.876"/>
<stop offset="1" stop-color="#596C76"/>
</linearGradient>
<linearGradient id="paint21_linear_2415_572" x1="36.6691" y1="66.5152" x2="75.0977" y2="121.651" gradientUnits="userSpaceOnUse">
<stop stop-color="#8AC9FE" stop-opacity="0"/>
<stop offset="0.1291" stop-color="#89C8FD" stop-opacity="0.019"/>
<stop offset="0.2629" stop-color="#88C6FB" stop-opacity="0.075"/>
<stop offset="0.3989" stop-color="#87C4F8" stop-opacity="0.168"/>
<stop offset="0.5365" stop-color="#85C0F4" stop-opacity="0.298"/>
<stop offset="0.6753" stop-color="#83BBEF" stop-opacity="0.466"/>
<stop offset="0.8151" stop-color="#7FB5E9" stop-opacity="0.672"/>
<stop offset="0.9532" stop-color="#7CAEE1" stop-opacity="0.911"/>
<stop offset="1" stop-color="#7BACDF"/>
</linearGradient>
<linearGradient id="paint22_linear_2415_572" x1="61.6051" y1="95.5406" x2="61.6051" y2="85.1027" gradientUnits="userSpaceOnUse">
<stop stop-color="#8AC9FE" stop-opacity="0"/>
<stop offset="0.1291" stop-color="#89C8FD" stop-opacity="0.019"/>
<stop offset="0.2629" stop-color="#88C6FB" stop-opacity="0.075"/>
<stop offset="0.3989" stop-color="#87C4F8" stop-opacity="0.168"/>
<stop offset="0.5365" stop-color="#85C0F4" stop-opacity="0.298"/>
<stop offset="0.6753" stop-color="#83BBEF" stop-opacity="0.466"/>
<stop offset="0.8151" stop-color="#7FB5E9" stop-opacity="0.672"/>
<stop offset="0.9532" stop-color="#7CAEE1" stop-opacity="0.911"/>
<stop offset="1" stop-color="#7BACDF"/>
</linearGradient>
<linearGradient id="paint23_linear_2415_572" x1="55.8262" y1="102.293" x2="45.2406" y2="102.293" gradientUnits="userSpaceOnUse">
<stop stop-color="#8AC9FE" stop-opacity="0"/>
<stop offset="0.1291" stop-color="#89C8FD" stop-opacity="0.019"/>
<stop offset="0.2629" stop-color="#88C6FB" stop-opacity="0.075"/>
<stop offset="0.3989" stop-color="#87C4F8" stop-opacity="0.168"/>
<stop offset="0.5365" stop-color="#85C0F4" stop-opacity="0.298"/>
<stop offset="0.6753" stop-color="#83BBEF" stop-opacity="0.466"/>
<stop offset="0.8151" stop-color="#7FB5E9" stop-opacity="0.672"/>
<stop offset="0.9532" stop-color="#7CAEE1" stop-opacity="0.911"/>
<stop offset="1" stop-color="#7BACDF"/>
</linearGradient>
<linearGradient id="paint24_linear_2415_572" x1="26.6945" y1="10.611" x2="155.346" y2="143.718" gradientUnits="userSpaceOnUse">
<stop stop-color="#8AC9FE" stop-opacity="0"/>
<stop offset="0.1291" stop-color="#89C8FD" stop-opacity="0.019"/>
<stop offset="0.2629" stop-color="#88C6FB" stop-opacity="0.075"/>
<stop offset="0.3989" stop-color="#87C4F8" stop-opacity="0.168"/>
<stop offset="0.5365" stop-color="#85C0F4" stop-opacity="0.298"/>
<stop offset="0.6753" stop-color="#83BBEF" stop-opacity="0.466"/>
<stop offset="0.8151" stop-color="#7FB5E9" stop-opacity="0.672"/>
<stop offset="0.9532" stop-color="#7CAEE1" stop-opacity="0.911"/>
<stop offset="1" stop-color="#7BACDF"/>
</linearGradient>
<linearGradient id="paint25_linear_2415_572" x1="18.9961" y1="18.0519" x2="147.647" y2="151.158" gradientUnits="userSpaceOnUse">
<stop stop-color="#8AC9FE" stop-opacity="0"/>
<stop offset="0.1291" stop-color="#89C8FD" stop-opacity="0.019"/>
<stop offset="0.2629" stop-color="#88C6FB" stop-opacity="0.075"/>
<stop offset="0.3989" stop-color="#87C4F8" stop-opacity="0.168"/>
<stop offset="0.5365" stop-color="#85C0F4" stop-opacity="0.298"/>
<stop offset="0.6753" stop-color="#83BBEF" stop-opacity="0.466"/>
<stop offset="0.8151" stop-color="#7FB5E9" stop-opacity="0.672"/>
<stop offset="0.9532" stop-color="#7CAEE1" stop-opacity="0.911"/>
<stop offset="1" stop-color="#7BACDF"/>
</linearGradient>
<linearGradient id="paint26_linear_2415_572" x1="-9.68438" y1="45.7723" x2="118.966" y2="178.879" gradientUnits="userSpaceOnUse">
<stop stop-color="#8AC9FE" stop-opacity="0"/>
<stop offset="0.1291" stop-color="#89C8FD" stop-opacity="0.019"/>
<stop offset="0.2629" stop-color="#88C6FB" stop-opacity="0.075"/>
<stop offset="0.3989" stop-color="#87C4F8" stop-opacity="0.168"/>
<stop offset="0.5365" stop-color="#85C0F4" stop-opacity="0.298"/>
<stop offset="0.6753" stop-color="#83BBEF" stop-opacity="0.466"/>
<stop offset="0.8151" stop-color="#7FB5E9" stop-opacity="0.672"/>
<stop offset="0.9532" stop-color="#7CAEE1" stop-opacity="0.911"/>
<stop offset="1" stop-color="#7BACDF"/>
</linearGradient>
<linearGradient id="paint27_linear_2415_572" x1="16.1925" y1="20.7618" x2="144.843" y2="153.868" gradientUnits="userSpaceOnUse">
<stop stop-color="#8AC9FE" stop-opacity="0"/>
<stop offset="0.1291" stop-color="#89C8FD" stop-opacity="0.019"/>
<stop offset="0.2629" stop-color="#88C6FB" stop-opacity="0.075"/>
<stop offset="0.3989" stop-color="#87C4F8" stop-opacity="0.168"/>
<stop offset="0.5365" stop-color="#85C0F4" stop-opacity="0.298"/>
<stop offset="0.6753" stop-color="#83BBEF" stop-opacity="0.466"/>
<stop offset="0.8151" stop-color="#7FB5E9" stop-opacity="0.672"/>
<stop offset="0.9532" stop-color="#7CAEE1" stop-opacity="0.911"/>
<stop offset="1" stop-color="#7BACDF"/>
</linearGradient>
<linearGradient id="paint28_linear_2415_572" x1="-8.16603" y1="44.3047" x2="120.485" y2="177.411" gradientUnits="userSpaceOnUse">
<stop stop-color="#8AC9FE" stop-opacity="0"/>
<stop offset="0.1291" stop-color="#89C8FD" stop-opacity="0.019"/>
<stop offset="0.2629" stop-color="#88C6FB" stop-opacity="0.075"/>
<stop offset="0.3989" stop-color="#87C4F8" stop-opacity="0.168"/>
<stop offset="0.5365" stop-color="#85C0F4" stop-opacity="0.298"/>
<stop offset="0.6753" stop-color="#83BBEF" stop-opacity="0.466"/>
<stop offset="0.8151" stop-color="#7FB5E9" stop-opacity="0.672"/>
<stop offset="0.9532" stop-color="#7CAEE1" stop-opacity="0.911"/>
<stop offset="1" stop-color="#7BACDF"/>
</linearGradient>
<linearGradient id="paint29_linear_2415_572" x1="-21.3469" y1="67.1305" x2="98.8136" y2="191.452" gradientUnits="userSpaceOnUse">
<stop stop-color="#8AC9FE" stop-opacity="0"/>
<stop offset="0.1291" stop-color="#89C8FD" stop-opacity="0.019"/>
<stop offset="0.2629" stop-color="#88C6FB" stop-opacity="0.075"/>
<stop offset="0.3989" stop-color="#87C4F8" stop-opacity="0.168"/>
<stop offset="0.5365" stop-color="#85C0F4" stop-opacity="0.298"/>
<stop offset="0.6753" stop-color="#83BBEF" stop-opacity="0.466"/>
<stop offset="0.8151" stop-color="#7FB5E9" stop-opacity="0.672"/>
<stop offset="0.9532" stop-color="#7CAEE1" stop-opacity="0.911"/>
<stop offset="1" stop-color="#7BACDF"/>
</linearGradient>
<linearGradient id="paint30_linear_2415_572" x1="8.79221" y1="141.782" x2="72.168" y2="182.563" gradientUnits="userSpaceOnUse">
<stop stop-color="#FFDFCF"/>
<stop offset="0.2453" stop-color="#FFDBCA"/>
<stop offset="0.4994" stop-color="#FFD0BE"/>
<stop offset="0.7566" stop-color="#FFBEA9"/>
<stop offset="1" stop-color="#FFA78F"/>
</linearGradient>
<linearGradient id="paint31_linear_2415_572" x1="34.6222" y1="136.593" x2="47.9839" y2="121.47" gradientUnits="userSpaceOnUse">
<stop stop-color="#F89580" stop-opacity="0"/>
<stop offset="0.1375" stop-color="#F6947F" stop-opacity="0.021"/>
<stop offset="0.2801" stop-color="#F3917C" stop-opacity="0.084"/>
<stop offset="0.4251" stop-color="#EE8E78" stop-opacity="0.19"/>
<stop offset="0.5717" stop-color="#E68873" stop-opacity="0.337"/>
<stop offset="0.7196" stop-color="#DD826B" stop-opacity="0.528"/>
<stop offset="0.8663" stop-color="#D17963" stop-opacity="0.757"/>
<stop offset="1" stop-color="#C5715A"/>
</linearGradient>
<linearGradient id="paint32_linear_2415_572" x1="39.0188" y1="189.009" x2="39.0188" y2="200.935" gradientUnits="userSpaceOnUse">
<stop stop-color="#F89580" stop-opacity="0"/>
<stop offset="0.1375" stop-color="#F6947F" stop-opacity="0.021"/>
<stop offset="0.2801" stop-color="#F3917C" stop-opacity="0.084"/>
<stop offset="0.4251" stop-color="#EE8E78" stop-opacity="0.19"/>
<stop offset="0.5717" stop-color="#E68873" stop-opacity="0.337"/>
<stop offset="0.7196" stop-color="#DD826B" stop-opacity="0.528"/>
<stop offset="0.8663" stop-color="#D17963" stop-opacity="0.757"/>
<stop offset="1" stop-color="#C5715A"/>
</linearGradient>
<linearGradient id="paint33_linear_2415_572" x1="46.9422" y1="172.15" x2="73.25" y2="169.802" gradientUnits="userSpaceOnUse">
<stop stop-color="#F89580" stop-opacity="0"/>
<stop offset="0.1375" stop-color="#F6947F" stop-opacity="0.021"/>
<stop offset="0.2801" stop-color="#F3917C" stop-opacity="0.084"/>
<stop offset="0.4251" stop-color="#EE8E78" stop-opacity="0.19"/>
<stop offset="0.5717" stop-color="#E68873" stop-opacity="0.337"/>
<stop offset="0.7196" stop-color="#DD826B" stop-opacity="0.528"/>
<stop offset="0.8663" stop-color="#D17963" stop-opacity="0.757"/>
<stop offset="1" stop-color="#C5715A"/>
</linearGradient>
<linearGradient id="paint34_linear_2415_572" x1="52.6781" y1="158.331" x2="45.4832" y2="145.116" gradientUnits="userSpaceOnUse">
<stop stop-color="white" stop-opacity="0"/>
<stop offset="0.1205" stop-color="white" stop-opacity="0.016"/>
<stop offset="0.2454" stop-color="white" stop-opacity="0.065"/>
<stop offset="0.3724" stop-color="white" stop-opacity="0.147"/>
<stop offset="0.5008" stop-color="white" stop-opacity="0.261"/>
<stop offset="0.6304" stop-color="white" stop-opacity="0.408"/>
<stop offset="0.761" stop-color="white" stop-opacity="0.588"/>
<stop offset="0.8898" stop-color="white" stop-opacity="0.797"/>
<stop offset="1" stop-color="white"/>
</linearGradient>
<linearGradient id="paint35_linear_2415_572" x1="120.182" y1="128.168" x2="122.837" y2="130.822" gradientUnits="userSpaceOnUse">
<stop stop-color="#766E6E"/>
<stop offset="0.2493" stop-color="#716B6B"/>
<stop offset="0.5076" stop-color="#656464"/>
<stop offset="0.769" stop-color="#505757"/>
<stop offset="1" stop-color="#384949"/>
</linearGradient>
<linearGradient id="paint36_linear_2415_572" x1="148.318" y1="92.7115" x2="157.581" y2="101.975" gradientUnits="userSpaceOnUse">
<stop stop-color="#FEF48B"/>
<stop offset="0.1646" stop-color="#FDF286"/>
<stop offset="0.3352" stop-color="#FDEE7A"/>
<stop offset="0.5086" stop-color="#FCE765"/>
<stop offset="0.6839" stop-color="#FCDE48"/>
<stop offset="0.8589" stop-color="#FBD123"/>
<stop offset="1" stop-color="#FAC600"/>
</linearGradient>
<linearGradient id="paint37_linear_2415_572" x1="154.166" y1="98.5597" x2="158.999" y2="103.393" gradientUnits="userSpaceOnUse">
<stop stop-color="#FE9738" stop-opacity="0"/>
<stop offset="0.1207" stop-color="#FE9738" stop-opacity="0.016"/>
<stop offset="0.2459" stop-color="#FE9738" stop-opacity="0.065"/>
<stop offset="0.3731" stop-color="#FE9738" stop-opacity="0.147"/>
<stop offset="0.5018" stop-color="#FE9738" stop-opacity="0.262"/>
<stop offset="0.6317" stop-color="#FE9738" stop-opacity="0.41"/>
<stop offset="0.7625" stop-color="#FE9738" stop-opacity="0.59"/>
<stop offset="0.8916" stop-color="#FE9738" stop-opacity="0.8"/>
<stop offset="1" stop-color="#FE9738"/>
</linearGradient>
<linearGradient id="paint38_linear_2415_572" x1="182.103" y1="80.4211" x2="177.694" y2="75.9656" gradientUnits="userSpaceOnUse">
<stop stop-color="#FE9738" stop-opacity="0"/>
<stop offset="0.1207" stop-color="#FE9738" stop-opacity="0.016"/>
<stop offset="0.2459" stop-color="#FE9738" stop-opacity="0.065"/>
<stop offset="0.3731" stop-color="#FE9738" stop-opacity="0.147"/>
<stop offset="0.5018" stop-color="#FE9738" stop-opacity="0.262"/>
<stop offset="0.6317" stop-color="#FE9738" stop-opacity="0.41"/>
<stop offset="0.7625" stop-color="#FE9738" stop-opacity="0.59"/>
<stop offset="0.8916" stop-color="#FE9738" stop-opacity="0.8"/>
<stop offset="1" stop-color="#FE9738"/>
</linearGradient>
<linearGradient id="paint39_linear_2415_572" x1="144.174" y1="88.5669" x2="159.591" y2="103.984" gradientUnits="userSpaceOnUse">
<stop stop-color="#FE9738" stop-opacity="0"/>
<stop offset="0.1207" stop-color="#FE9738" stop-opacity="0.016"/>
<stop offset="0.2459" stop-color="#FE9738" stop-opacity="0.065"/>
<stop offset="0.3731" stop-color="#FE9738" stop-opacity="0.147"/>
<stop offset="0.5018" stop-color="#FE9738" stop-opacity="0.262"/>
<stop offset="0.6317" stop-color="#FE9738" stop-opacity="0.41"/>
<stop offset="0.7625" stop-color="#FE9738" stop-opacity="0.59"/>
<stop offset="0.8916" stop-color="#FE9738" stop-opacity="0.8"/>
<stop offset="1" stop-color="#FE9738"/>
</linearGradient>
<linearGradient id="paint40_linear_2415_572" x1="151.784" y1="99.3766" x2="155.23" y2="95.9302" gradientUnits="userSpaceOnUse">
<stop stop-color="#FE9738" stop-opacity="0"/>
<stop offset="0.1207" stop-color="#FE9738" stop-opacity="0.016"/>
<stop offset="0.2459" stop-color="#FE9738" stop-opacity="0.065"/>
<stop offset="0.3731" stop-color="#FE9738" stop-opacity="0.147"/>
<stop offset="0.5018" stop-color="#FE9738" stop-opacity="0.262"/>
<stop offset="0.6317" stop-color="#FE9738" stop-opacity="0.41"/>
<stop offset="0.7625" stop-color="#FE9738" stop-opacity="0.59"/>
<stop offset="0.8916" stop-color="#FE9738" stop-opacity="0.8"/>
<stop offset="1" stop-color="#FE9738"/>
</linearGradient>
<linearGradient id="paint41_linear_2415_572" x1="176.134" y1="72.4852" x2="178.529" y2="74.8804" gradientUnits="userSpaceOnUse">
<stop stop-color="#FAC600"/>
<stop offset="0.2627" stop-color="#FAC104"/>
<stop offset="0.5349" stop-color="#FBB510"/>
<stop offset="0.8104" stop-color="#FCA225"/>
<stop offset="1" stop-color="#FE9038"/>
</linearGradient>
</defs>
</svg>
